<?xml version="1.0" encoding="UTF-8"?>
<svg version="1.1" xmlns="http://www.w3.org/2000/svg" width="180" height="206">
<path d="M0 0 C5.34731001 2.0566577 8.78592106 0.46906451 13.8125 -1.6875 C26.43156278 -6.85584559 42.31400439 -7.40198304 55.25 -2.75 C60.36899844 -0.12741453 65.36566353 2.59699059 67.25 8.25 C67.6661764 12.52381146 67.72646722 16.15412539 66 20.125 C63.60400872 23.03441798 61.56242913 24.93306006 57.83984375 25.83203125 C50.95362313 26.4303921 44.95952225 25.86595536 38.25 24.25 C37.27289063 24.01925781 36.29578125 23.78851563 35.2890625 23.55078125 C30.42255941 22.31784682 26.48399395 20.99637446 22.25 18.25 C20.34095006 17.47343731 18.42747399 16.70313356 16.48046875 16.02734375 C14.92362108 15.48476462 13.38477697 14.88890037 11.86328125 14.25390625 C7.1523448 12.47158963 4.13072561 11.85228257 -0.625 13.75 C-2.34190392 14.56552936 -4.0499183 15.39995915 -5.75 16.25 C-35.80486284 29.31733167 -35.80486284 29.31733167 -49.75 25.25 C-53.21041356 22.41875254 -55.98154234 19.37640121 -57.75 15.25 C-57.57900447 10.46212509 -56.7988745 6.9658158 -53.75 3.25 C-48.16673658 -1.4065807 -42.90938809 -3.77371981 -35.75 -4.75 C-35.05390625 -4.87117188 -34.3578125 -4.99234375 -33.640625 -5.1171875 C-22.08751278 -6.84593787 -10.50521561 -5.00029913 0 0 Z M-48.125 8.6875 C-49.97818535 11.12279027 -49.97818535 11.12279027 -49.8125 13.9375 C-48.93278283 16.28623062 -48.93278283 16.28623062 -47.1875 17.5625 C-33.310406 21.47655215 -17.15164319 12.72979583 -4.75 7.25 C-5.57978731 5.02701787 -5.57978731 5.02701787 -7.98046875 4.3984375 C-20.52843143 1.11640763 -37.48615869 -0.57386048 -48.125 8.6875 Z M15.25 6.25 C22.14929048 13.14929048 41.77218736 18.46350431 51.5 18.6875 C54.83683515 18.29820257 56.47246848 17.94376123 59.25 16.25 C60.50941717 13.95441532 60.50941717 13.95441532 60.25 11.25 C56.61431348 6.16003887 52.03534593 4.7817195 46.25 3.25 C45.61964844 3.06566406 44.98929688 2.88132812 44.33984375 2.69140625 C34.17581159 0.54461067 24.82025968 3.03599975 15.25 6.25 Z " fill="#13B768" transform="translate(89.75,124.75)"/>
<path d="M0 0 C2.9375 0.875 2.9375 0.875 4.0625 2.8125 C4.35125 3.493125 4.64 4.17375 4.9375 4.875 C6.87080603 5.96666275 6.87080603 5.96666275 8.9375 6.875 C10.6875 8.375 10.6875 8.375 11.9375 9.875 C11.9375 10.535 11.9375 11.195 11.9375 11.875 C12.55625 12.1225 13.175 12.37 13.8125 12.625 C16.34108627 14.11240369 16.65589004 15.31178009 17.9375 17.875 C18.5975 18.205 19.2575 18.535 19.9375 18.875 C22.46595528 20.13922764 22.70172764 21.40345528 23.9375 23.875 C24.5975 24.205 25.2575 24.535 25.9375 24.875 C28.42766793 26.12008396 28.92436718 27.34216796 29.9375 29.875 C30.5975 29.875 31.2575 29.875 31.9375 29.875 C31.8125 32.0625 31.8125 32.0625 30.9375 34.875 C29.53010062 36.11874829 28.11199796 37.3549872 26.6171875 38.4921875 C24.22407153 40.46233414 22.36596971 42.78609408 20.38671875 45.16015625 C18.35549993 47.56367394 16.2584604 49.74745297 13.9375 51.875 C13.2775 51.875 12.6175 51.875 11.9375 51.875 C11.9375 52.865 11.9375 53.855 11.9375 54.875 C11.31875 54.9575 10.7 55.04 10.0625 55.125 C7.75312433 55.68758459 7.75312433 55.68758459 6.6875 57.9375 C6.44 58.576875 6.1925 59.21625 5.9375 59.875 C5.2775 59.875 4.6175 59.875 3.9375 59.875 C3.2775 61.195 2.6175 62.515 1.9375 63.875 C-0.0425 63.875 -2.0225 63.875 -4.0625 63.875 C-4.7225 62.555 -5.3825 61.235 -6.0625 59.875 C-6.7225 59.875 -7.3825 59.875 -8.0625 59.875 C-9.359375 58.51953125 -9.359375 58.51953125 -10.8125 56.6875 C-12.86640044 54.18841917 -14.90092136 52.07012386 -17.4375 50.0625 C-18.30375 49.340625 -19.17 48.61875 -20.0625 47.875 C-20.0625 47.215 -20.0625 46.555 -20.0625 45.875 C-20.7225 45.875 -21.3825 45.875 -22.0625 45.875 C-22.0625 45.215 -22.0625 44.555 -22.0625 43.875 C-22.619375 43.648125 -23.17625 43.42125 -23.75 43.1875 C-27.78219057 40.89895941 -30.51308599 37.69912102 -33.0625 33.875 C-32.9375 30.8125 -32.9375 30.8125 -32.0625 27.875 C-30.125 26.75 -30.125 26.75 -28.0625 25.875 C-26.79445434 23.8414052 -26.79445434 23.8414052 -26.0625 21.875 C-25.4025 21.875 -24.7425 21.875 -24.0625 21.875 C-23.4025 20.555 -22.7425 19.235 -22.0625 17.875 C-21.4025 17.875 -20.7425 17.875 -20.0625 17.875 C-19.4025 16.555 -18.7425 15.235 -18.0625 13.875 C-17.4025 13.875 -16.7425 13.875 -16.0625 13.875 C-15.4025 12.555 -14.7425 11.235 -14.0625 9.875 C-13.4025 9.875 -12.7425 9.875 -12.0625 9.875 C-11.4025 8.555 -10.7425 7.235 -10.0625 5.875 C-9.4025 5.875 -8.7425 5.875 -8.0625 5.875 C-7.794375 5.25625 -7.52625 4.6375 -7.25 4 C-5.37107375 0.63771092 -3.81246814 -0.15561094 0 0 Z M-1.0625 8.875 C-5.36769158 12.35227012 -9.06764689 15.94673117 -12.58984375 20.2109375 C-14.84295529 22.75689378 -17.41458675 24.74515674 -20.0625 26.875 C-21.41349103 28.19043863 -22.75455669 29.51675118 -24.0625 30.875 C-22.93564977 34.25555068 -22.00865375 34.9829382 -19.3125 37.1875 C-16.66524661 39.4172654 -14.33593584 41.59800921 -12.1875 44.3125 C-11.48625 45.158125 -10.785 46.00375 -10.0625 46.875 C-9.4025 46.875 -8.7425 46.875 -8.0625 46.875 C-7.4025 48.195 -6.7425 49.515 -6.0625 50.875 C-5.4025 50.875 -4.7425 50.875 -4.0625 50.875 C-3.4025 52.195 -2.7425 53.515 -2.0625 54.875 C-1.4025 54.875 -0.7425 54.875 -0.0625 54.875 C1.30950427 53.48289216 1.30950427 53.48289216 2.6875 51.6875 C4.74140044 49.18841917 6.77592136 47.07012386 9.3125 45.0625 C10.17875 44.340625 11.045 43.61875 11.9375 42.875 C11.9375 42.215 11.9375 41.555 11.9375 40.875 C12.741875 40.565625 12.741875 40.565625 13.5625 40.25 C16.85728009 38.34249574 19.53113628 35.82680616 21.9375 32.875 C21.9375 32.215 21.9375 31.555 21.9375 30.875 C21.2775 30.875 20.6175 30.875 19.9375 30.875 C19.2775 29.555 18.6175 28.235 17.9375 26.875 C17.2775 26.875 16.6175 26.875 15.9375 26.875 C15.2775 25.555 14.6175 24.235 13.9375 22.875 C13.2775 22.875 12.6175 22.875 11.9375 22.875 C11.2775 21.555 10.6175 20.235 9.9375 18.875 C9.2775 18.875 8.6175 18.875 7.9375 18.875 C7.2775 17.555 6.6175 16.235 5.9375 14.875 C5.2775 14.875 4.6175 14.875 3.9375 14.875 C3.2775 13.555 2.6175 12.235 1.9375 10.875 C1.2775 10.875 0.6175 10.875 -0.0625 10.875 C-0.3925 10.215 -0.7225 9.555 -1.0625 8.875 Z " fill="#21B46A" transform="translate(96.0625,54.125)"/>
<path d="M0 0 C2 3 2 3 2 6 C2.763125 5.773125 3.52625 5.54625 4.3125 5.3125 C7 5 7 5 8.8125 6.3125 C10 8 10 8 10 10 C10.61875 10.2475 11.2375 10.495 11.875 10.75 C14.40358627 12.23740369 14.71839004 13.43678009 16 16 C16.66 16.33 17.32 16.66 18 17 C20.52845528 18.26422764 20.76422764 19.52845528 22 22 C22.66 22.33 23.32 22.66 24 23 C26.49016793 24.24508396 26.98686718 25.46716796 28 28 C28.66 28 29.32 28 30 28 C29.78277223 31.80148599 29.03107461 32.96820273 26.3125 35.75 C23.34820307 38.03961434 20.76559253 38.7310291 17 39 C16.67 40.32 16.34 41.64 16 43 C13.525 43.495 13.525 43.495 11 44 C11.6875 42.125 11.6875 42.125 13 40 C13.845625 39.690625 14.69125 39.38125 15.5625 39.0625 C16.366875 38.711875 17.17125 38.36125 18 38 C18.85125183 35.66303039 18.85125183 35.66303039 19 33 C19.38998169 31.83766846 19.38998169 31.83766846 19.7878418 30.65185547 C20.29426168 27.85513634 20.29426168 27.85513634 18.24926758 25.48876953 C17.38970459 24.62880371 16.5301416 23.76883789 15.64453125 22.8828125 C15.18648605 22.42139862 14.72844086 21.95998474 14.2565155 21.48458862 C13.28593719 20.51430895 12.30786992 19.55147103 11.32299805 18.59570312 C9.81563702 17.12805437 8.33986256 15.63326821 6.86523438 14.1328125 C5.91841282 13.19354902 4.96989904 12.25598766 4.01953125 11.3203125 C3.15432861 10.46711426 2.28912598 9.61391602 1.39770508 8.73486328 C-0.80584466 6.76820399 -0.80584466 6.76820399 -3.2121582 7.06982422 C-5.79861238 8.41550091 -6.59507447 10.5094502 -8 13 C-8.66 13 -9.32 13 -10 13 C-10.66 14.32 -11.32 15.64 -12 17 C-12.66 17 -13.32 17 -14 17 C-14.66 18.32 -15.32 19.64 -16 21 C-16.66 21 -17.32 21 -18 21 C-18.66 22.32 -19.32 23.64 -20 25 C-20.66 25 -21.32 25 -22 25 C-22.66 26.32 -23.32 27.64 -24 29 C-24.99 29 -25.98 29 -27 29 C-24.91959901 32.92964632 -22.47195261 35.63108889 -19.20703125 38.5703125 C-18 40 -18 40 -18 43 C-22.41031645 42.49111733 -24.89327599 39.96550928 -28 37 C-28 36.01 -28 35.02 -28 34 C-28.99 34 -29.98 34 -31 34 C-31.11937984 26.3255814 -31.11937984 26.3255814 -28.515625 23.2421875 C-27.29066513 22.24232709 -26.04100068 21.27203818 -24.76953125 20.33203125 C-22.39738548 18.54637626 -20.80345084 16.34448609 -19 14 C-17.38161281 12.28641357 -15.70328319 10.6292274 -14 9 C-13.20722656 8.23558594 -12.41445312 7.47117187 -11.59765625 6.68359375 C-10.71980469 5.85988281 -9.84195313 5.03617188 -8.9375 4.1875 C-8.10089844 3.39730469 -7.26429687 2.60710938 -6.40234375 1.79296875 C-4 0 -4 0 0 0 Z " fill="#10B867" transform="translate(98,56)"/>
<path d="M0 0 C3.96350429 2.27690672 6.01734777 4.92331057 8 9 C8.26262412 11.78155649 8.37594128 14.29392275 8.3125 17.0625 C8.31733398 18.12307617 8.31733398 18.12307617 8.32226562 19.20507812 C8.2836016 22.94845915 8.07062398 25.8239433 6 29 C5.34 29 4.68 29 4 29 C3.67 30.32 3.34 31.64 3 33 C-1.54561109 34.43274363 -5.42998795 35.65570652 -10 33.8125 C-13 32 -13 32 -14 29 C-14.66 29 -15.32 29 -16 29 C-18.92417375 22.23784819 -19.113042 14.55562481 -16.8125 7.5625 C-12.95754753 -0.01447554 -8.09330019 -1.31999459 0 0 Z M-7 8 C-9.30014687 11.01894277 -10.88411768 13.20537841 -11.4375 17 C-10.91691838 20.56970253 -9.96858098 22.97682207 -8 26 C-6.12907319 27.23901711 -6.12907319 27.23901711 -4 27 C-1.63511672 26.25087374 -1.63511672 26.25087374 0 24 C1.4629885 18.62167538 1.24468319 14.14956733 -1 9 C-3.97 8.505 -3.97 8.505 -7 8 Z " fill="#14B768" transform="translate(100,12)"/>
<path d="M0 0 C6 0 6 0 8.1171875 1.96875 C8.69726562 2.8040625 9.27734375 3.639375 9.875 4.5 C10.47054687 5.3353125 11.06609375 6.170625 11.6796875 7.03125 C12.11539063 7.6809375 12.55109375 8.330625 13 9 C13.33 6.03 13.66 3.06 14 0 C15.99954746 -0.04254356 18.00041636 -0.04080783 20 0 C21 1 21 1 21.11352539 3.04125977 C21.10828857 3.91580811 21.10305176 4.79035645 21.09765625 5.69140625 C21.09443359 6.63564453 21.09121094 7.57988281 21.08789062 8.55273438 C21.07951172 9.54595703 21.07113281 10.53917969 21.0625 11.5625 C21.05798828 12.55958984 21.05347656 13.55667969 21.04882812 14.58398438 C21.03700007 17.05604849 21.02051849 19.52799518 21 22 C19.35 22.66 17.7 23.32 16 24 C12.69176295 20.87058657 10.2868018 17.92023166 8 14 C7.34 13.67 6.68 13.34 6 13 C6 16.3 6 19.6 6 23 C4.02 23 2.04 23 0 23 C0 15.41 0 7.82 0 0 Z " fill="#F0DE81" transform="translate(154,173)"/>
<path d="M0 0 C11.14509127 -0.41881345 20.07811397 0.87429335 28.6640625 8.47265625 C31.54523779 11.76663151 31.27246647 15.64508154 31.21875 19.78125 C30.82846758 23.73982887 29.12044313 26.01137371 26.20703125 28.58203125 C20.09418697 32.50939846 11.50259106 31.16183459 4.7265625 29.74609375 C0.32490626 28.54162908 -3.8382407 26.85970155 -8 25 C-5.17844793 23.58922396 -3.84741006 24.50603445 -0.875 25.4375 C3.98295926 26.84560413 7.96809181 27.28482499 13 27 C13 26.67 13 26.34 13 26 C12.24074219 25.81824219 11.48148438 25.63648438 10.69921875 25.44921875 C9.70535156 25.19785156 8.71148437 24.94648438 7.6875 24.6875 C6.70136719 24.44386719 5.71523437 24.20023438 4.69921875 23.94921875 C1.99858988 22.99950411 0.79043784 22.18152323 -1 20 C-0.31035156 20.144375 0.37929687 20.28875 1.08984375 20.4375 C8.50186827 21.90160361 15.61382782 23.06548439 23 21 C23.08226668 17.95613276 22.97608217 15.92824652 22 13 C11.38999674 6.41611405 -2.07074348 7.68172932 -14 8 C-5.06593293 3.26220101 7.5347586 4.21610547 17 7 C20.77797095 9.33874392 23.9916763 11.9833526 26 16 C26.039992 17.99960012 26.04346799 20.00047242 26 22 C26.66 22 27.32 22 28 22 C28.02708567 20.39592672 28.04643483 18.7917215 28.0625 17.1875 C28.07410156 16.29417969 28.08570313 15.40085938 28.09765625 14.48046875 C28.11009967 11.86586209 28.11009967 11.86586209 27 9 C24.81027535 7.87290821 24.81027535 7.87290821 22 7 C20.25589844 6.37931641 20.25589844 6.37931641 18.4765625 5.74609375 C17.19326911 5.30824877 15.90940211 4.87208184 14.625 4.4375 C13.99078125 4.21642578 13.3565625 3.99535156 12.703125 3.76757812 C8.44346261 2.32885542 4.44144301 1.51070856 0 1 C0 0.67 0 0.34 0 0 Z " fill="#23B570" transform="translate(126,120)"/>
<path d="M0 0 C1.58206057 0.00667536 3.16410534 0.0186375 4.74609375 0.03515625 C5.55240234 0.03966797 6.35871094 0.04417969 7.18945312 0.04882812 C9.18753131 0.06065107 11.18557158 0.07858711 13.18359375 0.09765625 C13.51359375 1.41765625 13.84359375 2.73765625 14.18359375 4.09765625 C10.35370269 5.89995793 7.40237567 6.29387866 3.18359375 6.09765625 C2.85359375 6.75765625 2.52359375 7.41765625 2.18359375 8.09765625 C2.81007812 8.07445312 3.4365625 8.05125 4.08203125 8.02734375 C4.89929688 8.00929687 5.7165625 7.99125 6.55859375 7.97265625 C7.37070313 7.94945312 8.1828125 7.92625 9.01953125 7.90234375 C11.18359375 8.09765625 11.18359375 8.09765625 13.18359375 10.09765625 C12.85359375 11.41765625 12.52359375 12.73765625 12.18359375 14.09765625 C7.72859375 14.59265625 7.72859375 14.59265625 3.18359375 15.09765625 C3.18359375 15.42765625 3.18359375 15.75765625 3.18359375 16.09765625 C6.48359375 16.42765625 9.78359375 16.75765625 13.18359375 17.09765625 C13.56578142 18.75380282 13.89754477 20.42222649 14.18359375 22.09765625 C13.18359375 23.09765625 13.18359375 23.09765625 11.41772461 23.21118164 C10.66885986 23.20594482 9.91999512 23.20070801 9.1484375 23.1953125 C8.33955078 23.19208984 7.53066406 23.18886719 6.69726562 23.18554688 C5.84712891 23.17716797 4.99699219 23.16878906 4.12109375 23.16015625 C3.26708984 23.15564453 2.41308594 23.15113281 1.53320312 23.14648438 C-0.58336288 23.13465998 -2.6998931 23.11672394 -4.81640625 23.09765625 C-4.84528137 19.45183938 -4.8631621 15.80605162 -4.87890625 12.16015625 C-4.88728516 11.11923828 -4.89566406 10.07832031 -4.90429688 9.00585938 C-4.90913086 7.52182617 -4.90913086 7.52182617 -4.9140625 6.0078125 C-4.91929932 5.09136963 -4.92453613 4.17492676 -4.92993164 3.23071289 C-4.72990708 -0.52759796 -3.95096947 0.10109953 0 0 Z " fill="#F3E171" transform="translate(132.81640625,172.90234375)"/>
<path d="M0 0 C1.58206057 0.00667536 3.16410534 0.0186375 4.74609375 0.03515625 C5.55240234 0.03966797 6.35871094 0.04417969 7.18945312 0.04882812 C9.18753131 0.06065107 11.18557158 0.07858711 13.18359375 0.09765625 C13.18359375 1.74765625 13.18359375 3.39765625 13.18359375 5.09765625 C9.55359375 5.09765625 5.92359375 5.09765625 2.18359375 5.09765625 C2.18359375 6.08765625 2.18359375 7.07765625 2.18359375 8.09765625 C5.48359375 8.09765625 8.78359375 8.09765625 12.18359375 8.09765625 C12.18359375 10.07765625 12.18359375 12.05765625 12.18359375 14.09765625 C8.88359375 14.09765625 5.58359375 14.09765625 2.18359375 14.09765625 C2.18359375 15.08765625 2.18359375 16.07765625 2.18359375 17.09765625 C6.14359375 17.09765625 10.10359375 17.09765625 14.18359375 17.09765625 C14.18359375 18.74765625 14.18359375 20.39765625 14.18359375 22.09765625 C12.37171533 23.90953467 9.91381865 23.23000087 7.50585938 23.234375 C6.38727539 23.22857422 6.38727539 23.22857422 5.24609375 23.22265625 C4.13331055 23.22845703 4.13331055 23.22845703 2.99804688 23.234375 C-2.56313623 23.22429126 -2.56313623 23.22429126 -4.81640625 22.09765625 C-4.84528439 18.61850684 -4.86316312 15.13938794 -4.87890625 11.66015625 C-4.88728516 10.66693359 -4.89566406 9.67371094 -4.90429688 8.65039062 C-4.90751953 7.70615234 -4.91074219 6.76191406 -4.9140625 5.7890625 C-4.91929932 4.91451416 -4.92453613 4.03996582 -4.92993164 3.13891602 C-4.72509415 -0.54419428 -3.86487993 0.09889662 0 0 Z " fill="#2BAF72" transform="translate(41.81640625,172.90234375)"/>
<path d="M0 0 C6.27 0 12.54 0 19 0 C17.94759625 7.36682627 17.7508339 8.2491661 13 13 C12.34 13 11.68 13 11 13 C10.67 13.99 10.34 14.98 10 16 C12.97 16.33 15.94 16.66 19 17 C19 18.98 19 20.96 19 23 C12.73 23 6.46 23 0 23 C-1 18 -1 18 0.8125 14.6875 C1.534375 13.800625 2.25625 12.91375 3 12 C3.66 12 4.32 12 5 12 C5.28875 11.401875 5.5775 10.80375 5.875 10.1875 C7 8 7 8 9 5 C7.906875 5.185625 6.81375 5.37125 5.6875 5.5625 C2 6 2 6 -1 5 C-0.67 3.35 -0.34 1.7 0 0 Z " fill="#F3DE79" transform="translate(103,173)"/>
<path d="M0 0 C0.91652344 0.01160156 1.83304688 0.02320312 2.77734375 0.03515625 C3.69644531 0.04417969 4.61554688 0.05320312 5.5625 0.0625 C6.27277344 0.07410156 6.98304687 0.08570312 7.71484375 0.09765625 C7.71484375 0.42765625 7.71484375 0.75765625 7.71484375 1.09765625 C6.07515625 1.53078125 6.07515625 1.53078125 4.40234375 1.97265625 C0.6747053 2.91658829 0.6747053 2.91658829 -2.28515625 5.09765625 C-3.94065156 5.48265516 -5.60739955 5.8255876 -7.28515625 6.09765625 C-4.6234421 7.87213235 -2.36526559 8.94794806 0.58984375 10.09765625 C1.85441406 10.59265625 1.85441406 10.59265625 3.14453125 11.09765625 C3.99273437 11.42765625 4.8409375 11.75765625 5.71484375 12.09765625 C7.3821467 12.76273 9.04900191 13.42893121 10.71484375 14.09765625 C10.71484375 14.75765625 10.71484375 15.41765625 10.71484375 16.09765625 C11.29492188 16.29101562 11.875 16.484375 12.47265625 16.68359375 C16.88671875 18.15494792 21.30078125 19.62630208 25.71484375 21.09765625 C25.38484375 21.75765625 25.05484375 22.41765625 24.71484375 23.09765625 C18.50902931 23.45568401 13.33633891 22.4091069 7.3515625 20.75390625 C4.68250565 19.9768959 4.68250565 19.9768959 1.71484375 20.09765625 C-0.1590326 19.37605699 -2.01103559 18.59690906 -3.84765625 17.78515625 C-5.99288392 16.88787352 -8.13870604 15.99201051 -10.28515625 15.09765625 C-11.15140625 14.72125 -12.01765625 14.34484375 -12.91015625 13.95703125 C-19.22805321 11.56757022 -23.06996323 12.48062766 -29.23046875 15.1171875 C-30.24753906 15.60251953 -30.24753906 15.60251953 -31.28515625 16.09765625 C-30.95515625 15.10765625 -30.62515625 14.11765625 -30.28515625 13.09765625 C-28.63515625 12.76765625 -26.98515625 12.43765625 -25.28515625 12.09765625 C-25.28515625 11.43765625 -25.28515625 10.77765625 -25.28515625 10.09765625 C-20.61033333 8.60171292 -15.92913636 8.54966288 -11.28515625 10.09765625 C-11.61515625 9.10765625 -11.94515625 8.11765625 -12.28515625 7.09765625 C-9.77241072 3.32853795 -7.41715869 2.75045723 -3.28515625 1.09765625 C-2.28515625 0.09765625 -2.28515625 0.09765625 0 0 Z " fill="#0EB766" transform="translate(114.28515625,124.90234375)"/>
<path d="M0 0 C0.96808594 -0.01417969 1.93617187 -0.02835938 2.93359375 -0.04296875 C5.5625 0.1875 5.5625 0.1875 8.5625 2.1875 C8.2325 3.8375 7.9025 5.4875 7.5625 7.1875 C4.5925 6.8575 1.6225 6.5275 -1.4375 6.1875 C-0.1175 6.8475 1.2025 7.5075 2.5625 8.1875 C5.8125 9.8125 5.8125 9.8125 8.5625 12.1875 C9.09675861 15.03324485 8.85504774 17.26202263 8.5625 20.1875 C3.9650546 23.13458039 0.9266511 23.39330936 -4.2890625 22.70703125 C-6.56116037 22.15759667 -8.39456114 21.31065417 -10.4375 20.1875 C-10.1075 18.8675 -9.7775 17.5475 -9.4375 16.1875 C-5.43549622 14.58669849 -2.39193764 15.89470308 1.5625 17.1875 C0.76245526 15.04440054 0.76245526 15.04440054 -1.21484375 14.44140625 C-2.65183058 13.98146652 -4.08933015 13.52312563 -5.52734375 13.06640625 C-7.4375 12.1875 -7.4375 12.1875 -9.4375 9.1875 C-9.08234971 6.34629766 -8.34400749 3.90702248 -7.4375 1.1875 C-4.84996844 -0.10626578 -2.88791015 0.01917603 0 0 Z " fill="#26B06F" transform="translate(71.4375,172.8125)"/>
<path d="M0 0 C0.845625 -0.00773438 1.69125 -0.01546875 2.5625 -0.0234375 C5.43365432 0.4458858 6.83441027 1.48010899 9 3.375 C8.34 4.695 7.68 6.015 7 7.375 C3 7.375 3 7.375 0.9375 6.8125 C-1.20004394 6.15422612 -1.20004394 6.15422612 -4 7.375 C-4.85974801 9.66794488 -4.85974801 9.66794488 -5 12.375 C-3.62716577 14.91502013 -3.62716577 14.91502013 -1 16.375 C2.55420959 16.04584112 2.55420959 16.04584112 6 15.375 C6.99 16.035 7.98 16.695 9 17.375 C8.8125 19.25 8.8125 19.25 8 21.375 C4.22020141 23.85549283 0.47064073 23.60152731 -3.84375 22.96875 C-7.4277124 21.9818618 -8.93336014 20.4103773 -11 17.375 C-12.38073033 13.18103162 -12.30389342 10.22270269 -10.8125 6.0625 C-7.83616385 1.64931192 -5.36563791 -0.04907596 0 0 Z " fill="#19B06C" transform="translate(22,172.625)"/>
<path d="M0 0 C0.5625 1.9375 0.5625 1.9375 1 4 C-1.14576738 6.14576738 -5.88349221 5.3755459 -8.875 5.5 C-10.51839798 5.56900738 -12.1616435 5.64177379 -13.8046875 5.71875 C-14.90272705 5.76418945 -14.90272705 5.76418945 -16.02294922 5.81054688 C-19.16552821 6.11168806 -20.7607878 6.7607878 -23 9 C-23 8.34 -23 7.68 -23 7 C-24.01320313 7.433125 -24.01320313 7.433125 -25.046875 7.875 C-26.38492188 8.431875 -26.38492188 8.431875 -27.75 9 C-29.07257812 9.556875 -29.07257812 9.556875 -30.421875 10.125 C-33 11 -33 11 -37 11 C-37 10.34 -37 9.68 -37 9 C-33.48141867 5.74505877 -29.84590538 3.44053685 -25 3 C-25 2.34 -25 1.68 -25 1 C-16.40043966 -0.8748591 -8.73117765 -1.0421083 0 0 Z " fill="#16B665" transform="translate(76,120)"/>
<path d="M0 0 C0.99 0.33 1.98 0.66 3 1 C2.67 1.33 2.34 1.66 2 2 C5.3 1.67 8.6 1.34 12 1 C12 1.66 12 2.32 12 3 C4.35945902 5.74972528 -3.28267891 8.47191206 -11 11 C-11.33 10.34 -11.66 9.68 -12 9 C-13.485 9.2475 -13.485 9.2475 -15 9.5 C-19.02732942 10.08474517 -22.93474623 10.07132024 -27 10 C-27.66 8.68 -28.32 7.36 -29 6 C-25.90521121 4.96840374 -24.47368607 5.02517138 -21.3125 5.4375 C-20.50425781 5.53933594 -19.69601563 5.64117187 -18.86328125 5.74609375 C-18.24839844 5.82988281 -17.63351563 5.91367188 -17 6 C-17 5.01 -17 4.02 -17 3 C-16.34 3 -15.68 3 -15 3 C-15 3.66 -15 4.32 -15 5 C-12.87434778 4.35631658 -10.74949654 3.70998756 -8.625 3.0625 C-7.44164063 2.70285156 -6.25828125 2.34320313 -5.0390625 1.97265625 C-2.12073182 1.12423726 -2.12073182 1.12423726 0 0 Z " fill="#0FB865" transform="translate(70,139)"/>
<path d="M0 0 C1.58206057 0.00667536 3.16410534 0.0186375 4.74609375 0.03515625 C5.55240234 0.03966797 6.35871094 0.04417969 7.18945312 0.04882812 C9.18753131 0.06065107 11.18557158 0.07858711 13.18359375 0.09765625 C13.51359375 1.41765625 13.84359375 2.73765625 14.18359375 4.09765625 C10.10989951 6.13450337 7.59421511 6.12338215 3.18359375 5.09765625 C3.18359375 4.76765625 3.18359375 4.43765625 3.18359375 4.09765625 C4.83359375 3.76765625 6.48359375 3.43765625 8.18359375 3.09765625 C4.88359375 2.76765625 1.58359375 2.43765625 -1.81640625 2.09765625 C-2.14640625 8.36765625 -2.47640625 14.63765625 -2.81640625 21.09765625 C1.47359375 21.09765625 5.76359375 21.09765625 10.18359375 21.09765625 C10.18359375 20.43765625 10.18359375 19.77765625 10.18359375 19.09765625 C7.87359375 19.09765625 5.56359375 19.09765625 3.18359375 19.09765625 C3.18359375 18.43765625 3.18359375 17.77765625 3.18359375 17.09765625 C6.48359375 17.09765625 9.78359375 17.09765625 13.18359375 17.09765625 C13.56578142 18.75380282 13.89754477 20.42222649 14.18359375 22.09765625 C13.18359375 23.09765625 13.18359375 23.09765625 11.41772461 23.21118164 C10.66885986 23.20594482 9.91999512 23.20070801 9.1484375 23.1953125 C8.33955078 23.19208984 7.53066406 23.18886719 6.69726562 23.18554688 C5.84712891 23.17716797 4.99699219 23.16878906 4.12109375 23.16015625 C3.26708984 23.15564453 2.41308594 23.15113281 1.53320312 23.14648438 C-0.58336288 23.13465998 -2.6998931 23.11672394 -4.81640625 23.09765625 C-4.84528137 19.45183938 -4.8631621 15.80605162 -4.87890625 12.16015625 C-4.88728516 11.11923828 -4.89566406 10.07832031 -4.90429688 9.00585938 C-4.90913086 7.52182617 -4.90913086 7.52182617 -4.9140625 6.0078125 C-4.91929932 5.09136963 -4.92453613 4.17492676 -4.92993164 3.23071289 C-4.72990708 -0.52759796 -3.95096947 0.10109953 0 0 Z " fill="#F0E086" transform="translate(132.81640625,172.90234375)"/>
<path d="M0 0 C4.62 0 9.24 0 14 0 C14 0.66 14 1.32 14 2 C10.7 2.33 7.4 2.66 4 3 C4 4.32 4 5.64 4 7 C8.455 7.99 8.455 7.99 13 9 C13 9.66 13 10.32 13 11 C9.7 11 6.4 11 3 11 C3.33 12.65 3.66 14.3 4 16 C7.63 16.33 11.26 16.66 15 17 C15.33 18.32 15.66 19.64 16 21 C13.37493198 21.02690844 10.75013827 21.04679404 8.125 21.0625 C7.37863281 21.07087891 6.63226563 21.07925781 5.86328125 21.08789062 C0.2265625 21.11328125 0.2265625 21.11328125 -2 20 C-2 19.34 -2 18.68 -2 18 C-1.34 18 -0.68 18 0 18 C0 12.06 0 6.12 0 0 Z " fill="#13B368" transform="translate(39,175)"/>
<path d="M0 0 C1.875 0.25 1.875 0.25 4 1 C4.6837045 2.32467746 5.34964186 3.65863633 6 5 C7.83284443 6.12516085 7.83284443 6.12516085 10 7 C11.67334039 7.98879205 13.34151823 8.98648336 15 10 C15.33 8.68 15.66 7.36 16 6 C16.33 6.66 16.66 7.32 17 8 C18.32 7.67 19.64 7.34 21 7 C20.47462592 10.78269337 19.83619109 13.35288832 17 16 C13.3125 16.75 13.3125 16.75 10 17 C9.67 16.01 9.34 15.02 9 14 C8.34 14 7.68 14 7 14 C6.566875 13.071875 6.13375 12.14375 5.6875 11.1875 C4.25750087 8.08457247 4.25750087 8.08457247 2.375 6.4375 C0.4935748 4.47055547 0.35731038 2.64409683 0 0 Z M25 1 C25.66 1.33 26.32 1.66 27 2 C26.67 3.32 26.34 4.64 26 6 C24.35 6.33 22.7 6.66 21 7 C21.3125 5.125 21.3125 5.125 22 3 C22.99 2.34 23.98 1.68 25 1 Z " fill="#0DBA65" transform="translate(81,100)"/>
<path d="M0 0 C1.99954746 -0.04254356 4.00041636 -0.04080783 6 0 C7 1 7 1 7.11352539 3.04125977 C7.10828857 3.91580811 7.10305176 4.79035645 7.09765625 5.69140625 C7.09443359 6.63564453 7.09121094 7.57988281 7.08789062 8.55273438 C7.07951172 9.54595703 7.07113281 10.53917969 7.0625 11.5625 C7.05798828 12.55958984 7.05347656 13.55667969 7.04882812 14.58398438 C7.03700007 17.05604849 7.02051849 19.52799518 7 22 C5.35 22.66 3.7 23.32 2 24 C-1.30823705 20.87058657 -3.7131982 17.92023166 -6 14 C-6.66 13.67 -7.32 13.34 -8 13 C-8 16.3 -8 19.6 -8 23 C-9.98 23 -11.96 23 -14 23 C-14 22.01 -14 21.02 -14 20 C-12.68 20 -11.36 20 -10 20 C-10 17.03 -10 14.06 -10 11 C-8.68 10.67 -7.36 10.34 -6 10 C-5.34 11.65 -4.68 13.3 -4 15 C-3.01 15 -2.02 15 -1 15 C-0.7525 15.639375 -0.505 16.27875 -0.25 16.9375 C0.96621634 19.49019039 0.96621634 19.49019039 5 20 C5 14.39 5 8.78 5 3 C4.01 3 3.02 3 2 3 C2 5.31 2 7.62 2 10 C1.34 9.67 0.68 9.34 0 9 C0 6.03 0 3.06 0 0 Z " fill="#F0E088" transform="translate(168,173)"/>
<path d="M0 0 C1.98 0 3.96 0 6 0 C6 7.26 6 14.52 6 22 C4.35 22.33 2.7 22.66 1 23 C0 22 0 22 -0.11352539 19.86694336 C-0.10828857 18.95050049 -0.10305176 18.03405762 -0.09765625 17.08984375 C-0.09443359 16.10048828 -0.09121094 15.11113281 -0.08789062 14.09179688 C-0.07951172 13.05087891 -0.07113281 12.00996094 -0.0625 10.9375 C-0.05798828 9.89271484 -0.05347656 8.84792969 -0.04882812 7.77148438 C-0.03699913 5.1809334 -0.02051689 2.59049441 0 0 Z " fill="#26B272" transform="translate(87,173)"/>
<path d="M0 0 C-0.36741128 6.12352138 -1.78651436 8.78651436 -6 13 C-6.66 13 -7.32 13 -8 13 C-8.33 13.99 -8.66 14.98 -9 16 C-6.03 16.33 -3.06 16.66 0 17 C0 18.98 0 20.96 0 23 C-6.27 23 -12.54 23 -19 23 C-19.33 21.68 -19.66 20.36 -20 19 C-19.67 19.66 -19.34 20.32 -19 21 C-13.72 21 -8.44 21 -3 21 C-3 20.34 -3 19.68 -3 19 C-5.64 19 -8.28 19 -11 19 C-11.33 18.01 -11.66 17.02 -12 16 C-10.3828125 13.6953125 -10.3828125 13.6953125 -8.125 11.125 C-5.09064727 7.66774096 -3.74019594 5.51991988 -3 1 C-1 0 -1 0 0 0 Z " fill="#F2E289" transform="translate(122,173)"/>
<path d="M0 0 C0.33 0.99 0.66 1.98 1 3 C-1.97 3 -4.94 3 -8 3 C-8 3.99 -8 4.98 -8 6 C-5.03 7.65 -2.06 9.3 1 11 C1 12.65 1 14.3 1 16 C0.01 16.66 -0.98 17.32 -2 18 C-2.66 15.69 -3.32 13.38 -4 11 C-5.8871875 11.12375 -5.8871875 11.12375 -7.8125 11.25 C-11.71651337 11.25690976 -11.71651337 11.25690976 -14 9.1875 C-15 7 -15 7 -15 4 C-10.71262954 -1.00193221 -6.08042254 -0.42503925 0 0 Z " fill="#13B665" transform="translate(77,175)"/>
<path d="M0 0 C-0.49371094 0.39832031 -0.98742187 0.79664063 -1.49609375 1.20703125 C-2.13675781 1.73683594 -2.77742188 2.26664063 -3.4375 2.8125 C-4.07558594 3.33457031 -4.71367188 3.85664063 -5.37109375 4.39453125 C-7.96151338 6.94767865 -7.99988399 8.99575422 -8.09765625 12.57421875 C-8.09103244 13.94534658 -8.07914198 15.31645717 -8.0625 16.6875 C-8.05798828 17.38939453 -8.05347656 18.09128906 -8.04882812 18.81445312 C-8.03706927 20.54300538 -8.01913454 22.27151365 -8 24 C-7.34 24 -6.68 24 -6 24 C-5.690625 24.804375 -5.38125 25.60875 -5.0625 26.4375 C-3.2545562 29.23762602 -3.2545562 29.23762602 -0.359375 29.5546875 C2.43170617 29.79085591 5.19972753 29.94770289 8 30 C7.67 30.66 7.34 31.32 7 32 C3.29336841 33.14729073 0.74369556 33.15048114 -2.8125 31.75 C-6 30 -6 30 -7 27 C-7.66 27 -8.32 27 -9 27 C-11.94041243 20.20029626 -12.11740889 12.51167004 -9.75 5.5 C-7.20777614 0.41555227 -5.57610078 -1.66468144 0 0 Z " fill="#24AE6E" transform="translate(93,14)"/>
<path d="M0 0 C11.14509127 -0.41881345 20.07811397 0.87429335 28.6640625 8.47265625 C31.5452104 11.76660019 31.26690862 15.641866 31.2265625 19.77734375 C30.8122942 23.84145859 28.79766545 26.20233455 26 29 C23.875 28.625 23.875 28.625 22 28 C22.66 28 23.32 28 24 28 C24 27.34 24 26.68 24 26 C24.825 25.278125 25.65 24.55625 26.5 23.8125 C29.31277112 21.1829416 29.31277112 21.1829416 29.4375 17.5 C29.02283171 14.18265368 28.71693708 11.8615618 27 9 C24.78304435 7.94083152 24.78304435 7.94083152 22 7 C20.25589844 6.37931641 20.25589844 6.37931641 18.4765625 5.74609375 C17.19326911 5.30824877 15.90940211 4.87208184 14.625 4.4375 C13.99078125 4.21642578 13.3565625 3.99535156 12.703125 3.76757812 C8.44346261 2.32885542 4.44144301 1.51070856 0 1 C0 0.67 0 0.34 0 0 Z " fill="#29B173" transform="translate(126,120)"/>
<path d="M0 0 C3.35742677 0.27978556 4.72685828 0.72685828 7.14453125 3.14453125 C9.36138373 6.55615055 9.50818683 8.4661384 9.4375 12.5 C9.43621094 13.6034375 9.43492188 14.706875 9.43359375 15.84375 C8.95791765 19.30632915 8.16618601 21.26805717 6 24 C5.01 24 4.02 24 3 24 C3 23.01 3 22.02 3 21 C3.66 20.67 4.32 20.34 5 20 C5 17.36 5 14.72 5 12 C4.34 11.67 3.68 11.34 3 11 C3.50603992 8.83125748 3.99983813 7.00032373 5 5 C4.360625 4.731875 3.72125 4.46375 3.0625 4.1875 C1 3 1 3 0 0 Z " fill="#08BD66" transform="translate(97,16)"/>
<path d="M0 0 C1.32 0 2.64 0 4 0 C3.67 1.155 3.34 2.31 3 3.5 C2.58844066 5.71552015 2.58844066 5.71552015 3 8 C4.87169028 10.40889523 6.88781326 12.2704836 9.21484375 14.23828125 C9.80394531 14.81964844 10.39304687 15.40101562 11 16 C11 16.99 11 17.98 11 19 C6.58968355 18.49111733 4.10672401 15.96550928 1 13 C1 12.01 1 11.02 1 10 C0.01 10 -0.98 10 -2 10 C-1.85950482 8.52031676 -1.71245174 7.04125484 -1.5625 5.5625 C-1.48128906 4.73878906 -1.40007812 3.91507812 -1.31640625 3.06640625 C-1 1 -1 1 0 0 Z " fill="#0ABA65" transform="translate(69,80)"/>
<path d="M0 0 C1.2065625 0.0309375 1.2065625 0.0309375 2.4375 0.0625 C2.75274889 3.24313611 2.65822859 4.71845621 0.90625 7.44921875 C0.2565625 8.20847656 -0.393125 8.96773437 -1.0625 9.75 C-3.75421047 12.54149375 -3.75421047 12.54149375 -4.5625 16.0625 C-1.9225 16.3925 0.7175 16.7225 3.4375 17.0625 C3.4375 17.7225 3.4375 18.3825 3.4375 19.0625 C-1.5125 19.0625 -6.4625 19.0625 -11.5625 19.0625 C-11.5625 18.0725 -11.5625 17.0825 -11.5625 16.0625 C-10.5725 15.4025 -9.5825 14.7425 -8.5625 14.0625 C-8.0984375 13.0725 -8.0984375 13.0725 -7.625 12.0625 C-6.5625 10.0625 -6.5625 10.0625 -4.5 9.0625 C-2.39721096 8.23117751 -2.39721096 8.23117751 -1.6875 6.125 C-1.33511893 3.74921748 -1.33511893 3.74921748 -3.5625 1.0625 C-2.5625 0.0625 -2.5625 0.0625 0 0 Z " fill="#F7DE66" transform="translate(115.5625,174.9375)"/>
<path d="M0 0 C0.99 0 1.98 0 3 0 C3 5.61 3 11.22 3 17 C1.35 16.67 -0.3 16.34 -2 16 C-2.33 14.68 -2.66 13.36 -3 12 C-3.99 12 -4.98 12 -6 12 C-6 10.68 -6 9.36 -6 8 C-5.195625 7.79375 -4.39125 7.5875 -3.5625 7.375 C-2.716875 6.92125 -1.87125 6.4675 -1 6 C-0.10169161 2.94727535 -0.10169161 2.94727535 0 0 Z " fill="#F8DE69" transform="translate(170,176)"/>
<path d="M0 0 C0.33 0.66 0.66 1.32 1 2 C2.90965547 2.84024973 2.90965547 2.84024973 5.1875 3.5 C6.39792969 3.88091797 6.39792969 3.88091797 7.6328125 4.26953125 C8.41398438 4.51058594 9.19515625 4.75164062 10 5 C13 6 13 6 16 7 C15.67 7.66 15.34 8.32 15 9 C8.73890416 9.36121707 3.56540768 8.27495788 -2.4609375 6.55859375 C-4.97642132 5.72614945 -4.97642132 5.72614945 -7 7 C-7 6.01 -7 5.02 -7 4 C-6.34 4 -5.68 4 -5 4 C-5 3.01 -5 2.02 -5 1 C-3.35 1.33 -1.7 1.66 0 2 C0 1.34 0 0.68 0 0 Z " fill="#0BB964" transform="translate(124,139)"/>
<path d="M0 0 C3.68369452 1.39161793 5.38132773 3.07544711 7.64453125 6.26953125 C10.08619103 12.10828291 9.50955507 18.86943382 8.8125 25.0625 C7.78125 27.546875 7.78125 27.546875 6.8125 29.0625 C5.8225 29.0625 4.8325 29.0625 3.8125 29.0625 C4.31853992 26.89375748 4.81233813 25.06282373 5.8125 23.0625 C5.98721848 20.96301399 6.07967852 18.85625592 6.125 16.75 C6.16238281 15.61949219 6.19976562 14.48898438 6.23828125 13.32421875 C5.57430527 8.23779729 2.8706046 5.95226978 -0.9375 2.75 C-1.68 2.193125 -2.4225 1.63625 -3.1875 1.0625 C-2.1875 0.0625 -2.1875 0.0625 0 0 Z " fill="#24B06F" transform="translate(99.1875,11.9375)"/>
<path d="M0 0 C0.58265625 0.31710938 1.1653125 0.63421875 1.765625 0.9609375 C4.77517159 2.36048189 7.7225052 2.62182752 11 3 C10.67 3.66 10.34 4.32 10 5 C7.4375 5.625 7.4375 5.625 5 6 C5 7.65 5 9.3 5 11 C7.31 11 9.62 11 12 11 C12 11.66 12 12.32 12 13 C8.37 13 4.74 13 1 13 C-0.32229189 10.35541621 -0.09677194 8.32238699 -0.0625 5.375 C-0.05347656 4.37210938 -0.04445312 3.36921875 -0.03515625 2.3359375 C-0.02355469 1.56507813 -0.01195312 0.79421875 0 0 Z " fill="#F7DF67" transform="translate(131,181)"/>
<path d="M0 0 C0.42796875 0.44472656 0.8559375 0.88945312 1.296875 1.34765625 C3.75805947 3.73545678 6.48683354 4.51497862 9.6875 5.6875 C10.86699219 6.12449219 12.04648438 6.56148437 13.26171875 7.01171875 C14.16535156 7.33785156 15.06898437 7.66398438 16 8 C16 8.99 16 9.98 16 11 C15.24976563 10.67386719 14.49953125 10.34773437 13.7265625 10.01171875 C10.49975651 8.63402703 7.25387664 7.31235831 4 6 C3.12988281 5.62359375 2.25976562 5.2471875 1.36328125 4.859375 C-4.94537225 2.46188349 -8.79332658 3.38661761 -14.9453125 6.01953125 C-15.62335938 6.34308594 -16.30140625 6.66664063 -17 7 C-16.67 6.01 -16.34 5.02 -16 4 C-14.35 3.67 -12.7 3.34 -11 3 C-11 2.34 -11 1.68 -11 1 C-7.30516081 -0.18234854 -3.85646386 -0.2804701 0 0 Z " fill="#1DB26C" transform="translate(100,134)"/>
<path d="M0 0 C-0.33 1.65 -0.66 3.3 -1 5 C-1.763125 5.061875 -2.52625 5.12375 -3.3125 5.1875 C-6.84844623 6.256507 -7.23947323 7.87906619 -9 11 C-9.99 11 -10.98 11 -12 11 C-12 11.66 -12 12.32 -12 13 C-12.99 13.66 -13.98 14.32 -15 15 C-15.66 15.99 -16.32 16.98 -17 18 C-17.33 17.34 -17.66 16.68 -18 16 C-16.08184145 11.12610248 -13.4193781 8.11031996 -9.5625 4.625 C-8.14130859 3.31402344 -8.14130859 3.31402344 -6.69140625 1.9765625 C-4 0 -4 0 0 0 Z " fill="#0ABA64" transform="translate(98,56)"/>
<path d="M0 0 C0.66 0.33 1.32 0.66 2 1 C2.33 1.99 2.66 2.98 3 4 C2 5 2 5 -0.40844727 5.11352539 C-1.45057373 5.10828857 -2.4927002 5.10305176 -3.56640625 5.09765625 C-4.69111328 5.09443359 -5.81582031 5.09121094 -6.97460938 5.08789062 C-8.15861328 5.07951172 -9.34261719 5.07113281 -10.5625 5.0625 C-11.75037109 5.05798828 -12.93824219 5.05347656 -14.16210938 5.04882812 C-17.10812226 5.03699675 -20.05403681 5.02051287 -23 5 C-20.75299139 2.75299139 -19.18136401 2.06729563 -16.00708008 1.88647461 C-15.26868896 1.89171143 -14.53029785 1.89694824 -13.76953125 1.90234375 C-12.56586914 1.90717773 -12.56586914 1.90717773 -11.33789062 1.91210938 C-10.50451172 1.92048828 -9.67113281 1.92886719 -8.8125 1.9375 C-7.96751953 1.94201172 -7.12253906 1.94652344 -6.25195312 1.95117188 C-4.16793845 1.96294597 -2.08396023 1.9808811 0 2 C0 1.34 0 0.68 0 0 Z " fill="#06BD60" transform="translate(74,120)"/>
<path d="M0 0 C1.98 0.99 1.98 0.99 4 2 C4 2.66 4 3.32 4 4 C4.61875 4.2475 5.2375 4.495 5.875 4.75 C8.35068687 6.20628639 8.95125002 7.37812506 10 10 C10.66 10 11.32 10 12 10 C11.84518205 12.70931419 11.51827919 14.46584039 9.59765625 16.4453125 C8.10228292 17.67679642 6.5537076 18.8429837 5 20 C4.67 19.34 4.34 18.68 4 18 C4.33 17.01 4.66 16.02 5 15 C5.99 14.67 6.98 14.34 8 14 C7.89386164 11.54775306 7.89386164 11.54775306 7 9 C4.52363988 7.62533375 4.52363988 7.62533375 2 7 C2 6.01 2 5.02 2 4 C1.34 3.67 0.68 3.34 0 3 C0 2.01 0 1.02 0 0 Z M-2 5 C-0.02 5.99 -0.02 5.99 2 7 C2 7.99 2 8.98 2 10 C0.68 8.35 -0.64 6.7 -2 5 Z " fill="#16B169" transform="translate(116,74)"/>
<path d="M0 0 C0.66 0 1.32 0 2 0 C2 0.66 2 1.32 2 2 C3.65 2 5.3 2 7 2 C6.4375 3.9375 6.4375 3.9375 5 6 C0.02487676 7.19402958 -4.91450754 7.08921917 -10 7 C-10.66 5.68 -11.32 4.36 -12 3 C-8.90521121 1.96840374 -7.47368607 2.02517138 -4.3125 2.4375 C-3.50425781 2.53933594 -2.69601563 2.64117187 -1.86328125 2.74609375 C-1.24839844 2.82988281 -0.63351563 2.91367188 0 3 C0 2.01 0 1.02 0 0 Z " fill="#0BBA61" transform="translate(53,142)"/>
<path d="M0 0 C8.18181818 3.18181818 8.18181818 3.18181818 11 6 C10.67 6.99 10.34 7.98 10 9 C10.99 9.33 11.98 9.66 13 10 C12.01 11.485 12.01 11.485 11 13 C6.82830687 10.38056478 3.2238276 7.79273835 0 4 C0 2.68 0 1.36 0 0 Z " fill="#0BBA62" transform="translate(106,68)"/>
<path d="M0 0 C3 4 3 4 4.25 6.125 C5.8870949 8.27108184 5.8870949 8.27108184 8.69921875 8.390625 C9.68535156 8.34421875 10.67148437 8.2978125 11.6875 8.25 C13.17830078 8.19585937 13.17830078 8.19585937 14.69921875 8.140625 C15.45847656 8.09421875 16.21773437 8.0478125 17 8 C17 7.34 17 6.68 17 6 C15.68 6 14.36 6 13 6 C13 5.34 13 4.68 13 4 C14.8125 3.375 14.8125 3.375 17 3 C17.99 3.66 18.98 4.32 20 5 C19.8125 6.875 19.8125 6.875 19 9 C15.21994974 11.48065799 11.47600632 11.21790156 7.16015625 10.60546875 C3.67863393 9.62963519 2.04657863 7.90482129 0 5 C-0.3125 2.1875 -0.3125 2.1875 0 0 Z " fill="#27AD6D" transform="translate(11,185)"/>
<path d="M0 0 C2.30859375 1.52734375 2.30859375 1.52734375 4 3 C2.25 6.875 2.25 6.875 0 8 C0 6.35 0 4.7 0 3 C-1.41623216 2.94552953 -2.83308191 2.90699492 -4.25 2.875 C-5.43335938 2.84019531 -5.43335938 2.84019531 -6.640625 2.8046875 C-9.25615303 3.02120472 -10.81598831 3.55541828 -13 5 C-13.65555119 7.52733235 -13.65555119 7.52733235 -14 10 C-14.99 10.495 -14.99 10.495 -16 11 C-15.77407627 7.08398866 -15.53572471 4.67397624 -13.0625 1.5625 C-8.78613829 -0.6193172 -4.71845738 -0.85162402 0 0 Z " fill="#2AAA70" transform="translate(27,173)"/>
<path d="M0 0 C0.99 0 1.98 0 3 0 C3 0.99 3 1.98 3 3 C3.99 3.33 4.98 3.66 6 4 C6 4.99 6 5.98 6 7 C4.68 7.33 3.36 7.66 2 8 C1.67 10.64 1.34 13.28 1 16 C0.34 16 -0.32 16 -1 16 C-1.02685095 13.52076199 -1.04676547 11.0418116 -1.0625 8.5625 C-1.07506836 7.50192383 -1.07506836 7.50192383 -1.08789062 6.41992188 C-1.09653588 4.61306441 -1.05220011 2.80612397 -1 1 C-0.67 0.67 -0.34 0.34 0 0 Z " fill="#F8DE66" transform="translate(157,176)"/>
<path d="M0 0 C3.96 0 7.92 0 12 0 C12 0.33 12 0.66 12 1 C8.7 1 5.4 1 2 1 C2 1.99 2 2.98 2 4 C5.96 4 9.92 4 14 4 C14 5.65 14 7.3 14 9 C13.34 9 12.68 9 12 9 C12 8.01 12 7.02 12 6 C11.21753906 6.01160156 10.43507813 6.02320313 9.62890625 6.03515625 C8.61699219 6.04417969 7.60507812 6.05320313 6.5625 6.0625 C5.55316406 6.07410156 4.54382812 6.08570313 3.50390625 6.09765625 C1 6 1 6 0 5 C0 3.35 0 1.7 0 0 Z " fill="#35B379" transform="translate(42,186)"/>
<path d="M0 0 C0 2.31 0 4.62 0 7 C0.66 7 1.32 7 2 7 C2.33 8.65 2.66 10.3 3 12 C2.34 12 1.68 12 1 12 C1 12.99 1 13.98 1 15 C0.01 14.67 -0.98 14.34 -2 14 C-2 13.01 -2 12.02 -2 11 C-2.33 10.01 -2.66 9.02 -3 8 C-3.03954234 5.66700175 -3.04401732 3.33291811 -3 1 C-1 0 -1 0 0 0 Z " fill="#0DBC64" transform="translate(38,133)"/>
<path d="M0 0 C0.99 0.33 1.98 0.66 3 1 C2.67 1.66 2.34 2.32 2 3 C1.93049459 4.54023996 1.91547643 6.08334988 1.9375 7.625 C1.94652344 8.44226563 1.95554687 9.25953125 1.96484375 10.1015625 C1.97644531 10.72804687 1.98804688 11.35453125 2 12 C2.66 12 3.32 12 4 12 C4 12.66 4 13.32 4 14 C2.1875 13.8125 2.1875 13.8125 0 13 C-2.09758712 10.12552877 -3.35241592 7.49695404 -4 4 C-3.01 4.495 -3.01 4.495 -2 5 C-1.34 3.35 -0.68 1.7 0 0 Z " fill="#0EBA66" transform="translate(14,178)"/>
<path d="M0 0 C-0.66 1.32 -1.32 2.64 -2 4 C-2.66 4 -3.32 4 -4 4 C-4.66 5.32 -5.32 6.64 -6 8 C-6.66 8 -7.32 8 -8 8 C-8.66 9.32 -9.32 10.64 -10 12 C-10.66 11.67 -11.32 11.34 -12 11 C-10.6875 8.0625 -10.6875 8.0625 -9 5 C-8.01 4.67 -7.02 4.34 -6 4 C-6 3.34 -6 2.68 -6 2 C-2.25 0 -2.25 0 0 0 Z " fill="#22B872" transform="translate(92,65)"/>
<path d="M0 0 C4.48993869 0.58652352 8.22543184 1.7643538 12.375 3.5625 C13.43460938 4.01753906 14.49421875 4.47257813 15.5859375 4.94140625 C16.38257812 5.29074219 17.17921875 5.64007813 18 6 C18 6.66 18 7.32 18 8 C5.09138381 5.24281984 5.09138381 5.24281984 0 1 C0 0.67 0 0.34 0 0 Z " fill="#26B36F" transform="translate(106,133)"/>
<path d="M0 0 C0.66 0.33 1.32 0.66 2 1 C-2.1938326 6.69162996 -2.1938326 6.69162996 -6 8 C-7.32 8 -8.64 8 -10 8 C-10 7.34 -10 6.68 -10 6 C-8.57421875 4.74609375 -8.57421875 4.74609375 -6.6875 3.4375 C-6.07261719 3.00308594 -5.45773438 2.56867188 -4.82421875 2.12109375 C-3 1 -3 1 0 0 Z " fill="#0ABA66" transform="translate(49,123)"/>
<path d="M0 0 C1.67542976 0.28604898 3.34385343 0.61781233 5 1 C4.67 1.66 4.34 2.32 4 3 C3.01 2.67 2.02 2.34 1 2 C1 2.66 1 3.32 1 4 C3.43387753 5.21693876 5.41838846 5.31959896 8.125 5.5625 C9.03507812 5.64628906 9.94515625 5.73007813 10.8828125 5.81640625 C11.58148438 5.87699219 12.28015625 5.93757812 13 6 C11 8 11 8 8.9765625 8.046875 C8.20054688 7.94890625 7.42453125 7.8509375 6.625 7.75 C5.85414062 7.66234375 5.08328125 7.5746875 4.2890625 7.484375 C1.9213207 6.98335114 0.10648302 6.17347456 -2 5 C-1.125 1.125 -1.125 1.125 0 0 Z " fill="#2FAD73" transform="translate(63,188)"/>
<path d="M0 0 C0 0.66 0 1.32 0 2 C-2.24973447 2.054138 -4.49984383 2.09285491 -6.75 2.125 C-8.00296875 2.14820312 -9.2559375 2.17140625 -10.546875 2.1953125 C-13.72820492 2.01537302 -15.36521896 1.68998582 -18 0 C-11.84098757 -1.23180249 -6.21324498 -0.73030908 0 0 Z " fill="#1FB36C" transform="translate(74,120)"/>
<path d="M0 0 C1.43088528 2.86177057 0.59991697 4.93375773 0 8 C0.99 8 1.98 8 3 8 C5.10770759 10.88834003 6 12.38462395 6 16 C4.87105124 15.06725891 3.74699124 14.12859878 2.625 13.1875 C1.99851562 12.66542969 1.37203125 12.14335938 0.7265625 11.60546875 C-1 10 -1 10 -3 7 C-1.59459459 1.59459459 -1.59459459 1.59459459 0 0 Z " fill="#1BAF6B" transform="translate(67,82)"/>
<path d="M0 0 C0 0.66 0 1.32 0 2 C-1.43671568 2.64757625 -2.87440416 3.29299453 -4.3125 3.9375 C-5.11300781 4.29714844 -5.91351563 4.65679687 -6.73828125 5.02734375 C-9 6 -9 6 -12 7 C-12.33 8.98 -12.66 10.96 -13 13 C-13.33 13 -13.66 13 -14 13 C-13.51592357 6.70700637 -13.51592357 6.70700637 -11.3125 3.6875 C-7.73062023 1.07369585 -4.42230938 0 0 0 Z " fill="#27B172" transform="translate(53,127)"/>
<path d="M0 0 C0 0.66 0 1.32 0 2 C-2.24916619 2.81487171 -4.49926978 3.62696918 -6.75 4.4375 C-7.70132813 4.78264648 -7.70132813 4.78264648 -8.671875 5.13476562 C-11.75412076 6.24244769 -14.79836438 7.29661036 -18 8 C-18 7.01 -18 6.02 -18 5 C-16.845 4.731875 -15.69 4.46375 -14.5 4.1875 C-11.44981068 3.43309375 -8.55550962 2.50748632 -5.625 1.375 C-2 0 -2 0 0 0 Z " fill="#26B173" transform="translate(82,140)"/>
<path d="M0 0 C0 0.66 0 1.32 0 2 C-0.71027344 2.13277344 -1.42054687 2.26554687 -2.15234375 2.40234375 C-3.07144531 2.57894531 -3.99054688 2.75554687 -4.9375 2.9375 C-5.85402344 3.11152344 -6.77054688 3.28554687 -7.71484375 3.46484375 C-9.95289844 3.77714988 -9.95289844 3.77714988 -11 5 C-12.99958364 5.04080783 -15.00045254 5.04254356 -17 5 C-16 3 -16 3 -13.8125 1.9375 C-9.20527905 0.40175968 -4.84485679 -0.14249579 0 0 Z " fill="#28B174" transform="translate(120,120)"/>
<path d="M0 0 C0.99 0 1.98 0 3 0 C1.63016497 3.16115776 1.0109362 3.9927092 -2 6 C-3.19232613 8.05003955 -3.19232613 8.05003955 -4 10 C-4.99 10 -5.98 10 -7 10 C-7 9.01 -7 8.02 -7 7 C-6.34 7 -5.68 7 -5 7 C-4.34 5.68 -3.68 4.36 -3 3 C-2.34 3 -1.68 3 -1 3 C-0.67 2.01 -0.34 1.02 0 0 Z " fill="#17AB67" transform="translate(105,98)"/>
<path d="M0 0 C3.96 0 7.92 0 12 0 C12.33 1.32 12.66 2.64 13 4 C10 5 10 5 7.8125 4.0625 C7.214375 3.711875 6.61625 3.36125 6 3 C6.33 2.67 6.66 2.34 7 2 C4.69 1.67 2.38 1.34 0 1 C0 0.67 0 0.34 0 0 Z " fill="#12B264" transform="translate(91,40)"/>
<path d="M0 0 C2.97 0 5.94 0 9 0 C9 1.65 9 3.3 9 5 C8.34 5 7.68 5 7 5 C7 4.34 7 3.68 7 3 C4.69 3 2.38 3 0 3 C0 2.01 0 1.02 0 0 Z " fill="#28A569" transform="translate(45,181)"/>
<path d="M0 0 C5.6143991 1.56448671 10.86810338 3.16395187 16 6 C15.67 6.66 15.34 7.32 15 8 C13.05878789 7.23856331 11.12213883 6.46548643 9.1875 5.6875 C8.10855469 5.25824219 7.02960938 4.82898438 5.91796875 4.38671875 C3.30855223 3.14663459 1.82591016 2.18468549 0 0 Z " fill="#28B570" transform="translate(101,137)"/>
<path d="M0 0 C1.50433594 0.01353516 1.50433594 0.01353516 3.0390625 0.02734375 C3.80992188 0.03894531 4.58078125 0.05054688 5.375 0.0625 C2.8061309 2.6313691 0.84075169 2.36836256 -2.6484375 2.7109375 C-5.22762079 3.16968552 -6.75169111 4.26724565 -8.625 6.0625 C-8.25 3.625 -8.25 3.625 -7.625 1.0625 C-4.98041621 -0.25979189 -2.94738699 -0.03427194 0 0 Z " fill="#26AC6E" transform="translate(71.625,172.9375)"/>
<path d="M0 0 C0.99 0.66 1.98 1.32 3 2 C-2.00932754 5.00559652 -5.32723489 5.29341888 -11 5 C-11 4.34 -11 3.68 -11 3 C-9.01432292 2.51171875 -7.02864583 2.0234375 -5.04296875 1.53515625 C-3.34316798 1.08989295 -1.66698046 0.55566015 0 0 Z " fill="#1DB06C" transform="translate(102,124)"/>
<path d="M0 0 C1.65 0.33 3.3 0.66 5 1 C4.67 2.32 4.34 3.64 4 5 C0.7 5 -2.6 5 -6 5 C-6 4.67 -6 4.34 -6 4 C-4.02 3.67 -2.04 3.34 0 3 C0 2.01 0 1.02 0 0 Z " fill="#F2DF8F" transform="translate(141,182)"/>
<path d="M0 0 C0.66 0 1.32 0 2 0 C1.34 1.32 0.68 2.64 0 4 C-0.66 4 -1.32 4 -2 4 C-2.66 5.32 -3.32 6.64 -4 8 C-5.98 8 -7.96 8 -10 8 C-10 7.34 -10 6.68 -10 6 C-8.02 6 -6.04 6 -4 6 C-3.71125 5.38125 -3.4225 4.7625 -3.125 4.125 C-2 2 -2 2 0 0 Z " fill="#2AB370" transform="translate(102,110)"/>
<path d="M0 0 C0.99 0 1.98 0 3 0 C2.84518205 2.70931419 2.51827919 4.46584039 0.59765625 6.4453125 C-0.89771708 7.67679642 -2.4462924 8.8429837 -4 10 C-4.33 9.34 -4.66 8.68 -5 8 C-4.67 7.01 -4.34 6.02 -4 5 C-3.01 4.67 -2.02 4.34 -1 4 C-0.26676204 1.98491642 -0.26676204 1.98491642 0 0 Z " fill="#22B46D" transform="translate(125,84)"/>
<path d="M0 0 C0 0.66 0 1.32 0 2 C-5.445 4.475 -5.445 4.475 -11 7 C-11 6.01 -11 5.02 -11 4 C-9.73308493 3.32591692 -8.46129251 2.66099503 -7.1875 2 C-6.47980469 1.62875 -5.77210937 1.2575 -5.04296875 0.875 C-3 0 -3 0 0 0 Z " fill="#25B271" transform="translate(51,121)"/>
<path d="M0 0 C5.37992836 0.33990833 9.53273547 0.68557793 14 4 C11.12524262 5.43737869 9.49349643 4.52819784 6.4375 3.6875 C5.44621094 3.42324219 4.45492187 3.15898438 3.43359375 2.88671875 C1 2 1 2 0 0 Z " fill="#23B372" transform="translate(75,121)"/>
<path d="M0 0 C-0.48901099 6.35714286 -0.48901099 6.35714286 -2.9375 9.4375 C-5 11 -5 11 -7 11 C-5.84826645 8.53199953 -4.95216435 6.95216435 -3 5 C-3 3.68 -3 2.36 -3 1 C-1 0 -1 0 0 0 Z " fill="#F1E68D" transform="translate(122,173)"/>
<path d="M0 0 C0.99 0.33 1.98 0.66 3 1 C1.7625 2.0828125 1.7625 2.0828125 0.5 3.1875 C-2.24407806 5.72917366 -2.24407806 5.72917366 -2.3125 8.8125 C-2.1578125 9.8953125 -2.1578125 9.8953125 -2 11 C-2.99 10.67 -3.98 10.34 -5 10 C-4.75 7.125 -4.75 7.125 -4 4 C-1.9375 2.625 -1.9375 2.625 0 2 C0 1.34 0 0.68 0 0 Z " fill="#2FAD72" transform="translate(68,78)"/>
<path d="M0 0 C0 0.33 0 0.66 0 1 C1.65 1.33 3.3 1.66 5 2 C5 2.33 5 2.66 5 3 C0.71 3 -3.58 3 -8 3 C-8 2.34 -8 1.68 -8 1 C-5.29120665 -0.35439668 -2.99066732 -0.06501451 0 0 Z " fill="#12B467" transform="translate(128,119)"/>
<path d="M0 0 C2.64 0.99 5.28 1.98 8 3 C8 3.66 8 4.32 8 5 C2.375 5.25 2.375 5.25 -1 3 C-0.67 2.01 -0.34 1.02 0 0 Z " fill="#14B168" transform="translate(64,189)"/>
<path d="M0 0 C0.66 1.32 1.32 2.64 2 4 C1.01 5.32 0.02 6.64 -1 8 C-1.99 7.67 -2.98 7.34 -4 7 C-3.67 5.68 -3.34 4.36 -3 3 C-2.34 3 -1.68 3 -1 3 C-0.67 2.01 -0.34 1.02 0 0 Z " fill="#15B861" transform="translate(104,20)"/>
<path d="M0 0 C2.625 0.9375 2.625 0.9375 5 2 C4.67 3.32 4.34 4.64 4 6 C3.34 6 2.68 6 2 6 C2 5.01 2 4.02 2 3 C0.68 3 -0.64 3 -2 3 C-2 2.34 -2 1.68 -2 1 C-1.34 0.67 -0.68 0.34 0 0 Z " fill="#33A773" transform="translate(26,188)"/>
<path d="M0 0 C3.21203935 2.49825283 6.17493137 5.0702992 9 8 C8.67 8.99 8.34 9.98 8 11 C6.65772182 9.73861805 5.32641323 8.46555441 4 7.1875 C3.2575 6.47980469 2.515 5.77210937 1.75 5.04296875 C0 3 0 3 0 0 Z " fill="#2AB273" transform="translate(71,85)"/>
<path d="M0 0 C4.41889613 1.35021826 6.34345343 3.26115668 9 7 C6 7 6 7 3.375 4.625 C1 2 1 2 0 0 Z " fill="#19AD6D" transform="translate(106,65)"/>
<path d="M0 0 C3.3 0 6.6 0 10 0 C9.67 0.66 9.34 1.32 9 2 C6.93359375 2.4140625 6.93359375 2.4140625 4.4375 2.625 C3.61121094 2.69976562 2.78492188 2.77453125 1.93359375 2.8515625 C0.97646484 2.92503906 0.97646484 2.92503906 0 3 C0 2.01 0 1.02 0 0 Z " fill="#F8DF6A" transform="translate(132,175)"/>
<path d="M0 0 C1.65 0 3.3 0 5 0 C3.6875 2.5 3.6875 2.5 2 5 C1.01 5 0.02 5 -1 5 C-0.67 3.35 -0.34 1.7 0 0 Z " fill="#EEDC88" transform="translate(103,173)"/>
<path d="M0 0 C0 3 0 3 -1.3125 4.38671875 C-2.875 5.59114583 -4.4375 6.79557292 -6 8 C-6 4.84918025 -5.72101535 3.58152302 -4 1 C-1.875 0.25 -1.875 0.25 0 0 Z " fill="#25B373" transform="translate(119,94)"/>
<path d="M0 0 C-0.99 0.33 -1.98 0.66 -3 1 C-3 1.66 -3 2.32 -3 3 C-4.98 3 -6.96 3 -9 3 C-9.33 2.34 -9.66 1.68 -10 1 C-6.61981469 -0.04005702 -3.5219721 -0.08004482 0 0 Z " fill="#F5D37B" transform="translate(144,181)"/>
<path d="M0 0 C0 0.66 0 1.32 0 2 C-4.455 3.485 -4.455 3.485 -9 5 C-6.42453433 -0.15093135 -5.59847872 0 0 0 Z " fill="#20B76E" transform="translate(111,128)"/>
<path d="M0 0 C1.9375 0.3125 1.9375 0.3125 4 1 C4.33 1.99 4.66 2.98 5 4 C4.01 4.495 4.01 4.495 3 5 C2.01 4.67 1.02 4.34 0 4 C0 2.68 0 1.36 0 0 Z " fill="#08BB60" transform="translate(100,62)"/>
</svg>
